PathFileType	4	(X/Y/Z)	17_1_7_p0_0-236_filt_butterworth.trc
DataRate	CameraRate	NumFrames	NumMarkers	Units	OrigDataRate	OrigDataStartFrame	OrigNumFrames
59.0	59.0	5	27	m	59.0	0	236
Frame#	Time	RHip			RKnee			RAnkle			RBigToe			RSmallToe			RHeel			LHip			LKnee			LAnkle			LBigToe			LSmallToe			LHeel			Neck			Head			Nose			RShoulder			RElbow			RWrist			RThumb			RIndex			RPinky			LShoulder			LElbow			LWrist			LThumb			LIndex			LPinky			
		X1	Y1	Z1	X2	Y2	Z2	X3	Y3	Z3	X4	Y4	Z4	X5	Y5	Z5	X6	Y6	Z6	X7	Y7	Z7	X8	Y8	Z8	X9	Y9	Z9	X10	Y10	Z10	X11	Y11	Z11	X12	Y12	Z12	X13	Y13	Z13	X14	Y14	Z14	X15	Y15	Z15	X16	Y16	Z16	X17	Y17	Z17	X18	Y18	Z18	X19	Y19	Z19	X20	Y20	Z20	X21	Y21	Z21	X22	Y22	Z22	X23	Y23	Z23	X24	Y24	Z24	X25	Y25	Z25	X26	Y26	Z26	X27	Y27	Z27	
0	0.0	0.28013863063667166	0.8893185468098344	0.47674049821672176	0.2724820486918742	0.4453244293605102	0.625773854759405	0.25704384859923196	0.06420379409556794	0.7154128067269441	0.2904460025409266	0.05562919818831414	0.5040620166719434	0.3431987152767448	0.03209591331008885	0.5821521476126595	0.21959906237137156	-0.003581947745676793	0.7742450280759282	0.07325024553726396	0.897514838345928	0.45197155639407793	0.049573864162966684	0.46044544515157887	0.5695575051899373	0.036841242336511544	0.045737799067138214	0.6854426608070512	0.08131632008446725	0.05707118511552836	0.4579133526148612	0.01631250255101051	0.04442732806829012	0.5137286538690431	0.04924971742391844	-0.004445297928606968	0.7484419376476104	0.18424177818088217	1.4895875841457331	0.46278438518324544	0.1921037181205809	1.7307518351155784	0.4078084713552073	0.20868092044608466	1.6020435155395378	0.3152690125966009	0.33310062759013676	1.3835692875055645	0.4811359631322387	0.39146507316599444	1.1334394588941095	0.5234869741232613	0.39564913125598455	0.8884341084752304	0.47568614232858436	0.3374795505826176	0.7698254623370688	0.4763748406589419	0.35406388859228066	0.7551108126804797	0.46757634324989866	0.3511258572632474	0.7420334824587791	0.5395939210493569	0.02216962812662923	1.3932563090872931	0.447576091478561	-0.0170655272963663	1.1448913218016257	0.43968654906305077	-0.045586574653200124	0.8912448643731772	0.4136402656029421	-0.022211982063948924	0.7766171486230936	0.4364207942695386	-0.04437189669206496	0.7724953059538135	0.4086323058368795	-0.08474479835685636	0.7653972960311403	0.4527104018147276	
1	0.0169491525423728	0.27991621864702454	0.8892839916180152	0.47717204482354547	0.2713131764938019	0.44722598172617467	0.6214373724749652	0.25712715019486027	0.06574858697697437	0.7119770324290121	0.29030303909824995	0.05559721278308835	0.5043824391993842	0.34374079919898753	0.03357264394726142	0.5840372372545053	0.21996363600443772	-0.004834074437573964	0.7773254805816938	0.07322689193751206	0.8975466059192302	0.45144320204134286	0.049899388251186755	0.46200129200776524	0.5693943436082559	0.038791122159773046	0.04848710834293824	0.6816758640299114	0.08138628693031849	0.056506834884687704	0.45828608024266226	0.016286614733323723	0.04209421291305475	0.5145462011737018	0.04951587398508918	-0.0028811194021082873	0.7472114248153187	0.1870925734741284	1.490112722417223	0.45699556868399266	0.19273006929155903	1.7299517285815278	0.4075894949670612	0.20985104011533648	1.6026520692570971	0.3216027282363735	0.3323461432973355	1.3814529400416273	0.4823896531732505	0.38974586241151765	1.1325100655683318	0.5275648110871813	0.3935278797920726	0.883012912818564	0.4799922853585468	0.33519230795145194	0.7647683551858153	0.4855656085847078	0.3518744420277448	0.7534921355950442	0.4741856029133547	0.3563700280811585	0.7435392549169673	0.5317036182030417	0.021487857180422988	1.3924959773322512	0.4573651762581203	-0.016599831550096398	1.1427697525161116	0.4409905886824266	-0.04668860019421951	0.8897777038848907	0.4295801736188031	-0.022165124136973836	0.7758374637734199	0.4428739248031958	-0.051496760865067534	0.7662960788018779	0.4287441555778062	-0.08464113304067832	0.7636970548960732	0.4597001613307527	
2	0.0338983050847457	0.2796112880428418	0.8893248410300986	0.47723691907619	0.2703035590521955	0.4486327223806725	0.6177336521029567	0.2570446962968767	0.06705264608637104	0.7089615552386491	0.2902164233810238	0.05559508152035627	0.504521868113368	0.34403057200951825	0.0347310872349751	0.5847738889887198	0.22021787742918753	-0.005673921874117905	0.7795898040954453	0.07322556674553875	0.8975489294972985	0.4511338804198916	0.05013673262208814	0.4631468786924311	0.5692585097272669	0.040321048212269145	0.05062442904162116	0.6786784413406913	0.08150587071814261	0.05547500205704782	0.45877016063252324	0.01638430787950418	0.04038076035851822	0.5151679648570763	0.049865217158918076	-0.0013804842103950013	0.7458839538176865	0.18893794055134044	1.4903459113988187	0.4533143394493933	0.19356198957121493	1.729189897526208	0.407719403500721	0.21100156349216537	1.6027422355486225	0.32757336999143843	0.3323970739040351	1.380114373968182	0.4830949897584901	0.3884162706633119	1.1317841889351758	0.5311054761070094	0.39191427944430796	0.8792586850533496	0.4838051843659056	0.3335055296820704	0.7619526325234428	0.49019673127868296	0.350261983665354	0.7522271640979088	0.47858270934092245	0.35918609019086534	0.7446708469689187	0.5253469708876618	0.021525780775090934	1.392052177422739	0.4633376556037415	-0.016380330294687988	1.1414101581984055	0.44149604156438155	-0.04767497012182611	0.8880362576910712	0.44243982909049584	-0.02199259426950033	0.7750672816099488	0.44847014588964756	-0.05620503682028321	0.761451226116974	0.44452789472516213	-0.08409457067649861	0.7621355918841031	0.4660640768190303	
3	0.0508474576271186	0.2792346462870149	0.8894328803630019	0.47697350715316805	0.26944198299627375	0.4495945947757612	0.6146156754193813	0.256816260164166	0.068133810419133	0.7063407232255625	0.29017506095458134	0.0556166701499984	0.5045200323288598	0.3441035880370027	0.03564723105983005	0.5845630466929097	0.22037230424032345	-0.006142629559059552	0.7811151928648701	0.0732427873899075	0.8975272070827843	0.45101393173580895	0.050293559736042416	0.46391859740728064	0.5691479727262201	0.041468155535089916	0.052203064247718464	0.6763829801479816	0.08165222939335968	0.0541997348675311	0.4593020294350968	0.016556140904647482	0.03919895418045499	0.5156146825495189	0.05028626629185653	5.3434790548020916e-05	0.7444798520021362	0.1899678696276449	1.490355560530477	0.4513379404216826	0.19451042780853856	1.7284492603621175	0.4081170856208842	0.2120983090052419	1.6024322976066097	0.33306646710260834	0.33307949677009496	1.379411602044317	0.48335711644094315	0.3874189451721784	1.131237734625374	0.5340906425397965	0.39078494786833534	0.8769594580934584	0.4869252351213576	0.3323201621944776	0.760920210836278	0.49121918667323544	0.34912489965852894	0.7512318384294153	0.48109885552448456	0.3600697118847987	0.7454723580830878	0.5203695907214327	0.02213854257677	1.3918659009221848	0.46620969876088836	-0.016344206458372992	1.1406753538659817	0.44146901465866756	-0.048492814330788295	0.8861980009103159	0.45241319446522715	-0.02172802610412418	0.774337080707849	0.45322063776606014	-0.05889976153821545	0.7578262628738985	0.45642472305569504	-0.08323604089830408	0.7607335300445942	0.4717321906162254	
4	0.0677966101694915	0.27879710084243536	0.8895998949336429	0.4764201952329927	0.2687172349552551	0.45016154236319955	0.6120364242002406	0.2564616150556128	0.06900991897063431	0.7040888844594603	0.2901678573842557	0.05565584442189505	0.5044166607608256	0.3439954016101067	0.03639706330842646	0.5836056542446812	0.2204374340325479	-0.006281336996149847	0.781978841137655	0.07327507129918177	0.8974868366783382	0.4510536961951799	0.05037753205342115	0.4643528403540181	0.5690607017843653	0.042269579169325416	0.05327631704576276	0.674722067860373	0.08180252090138981	0.05290508155105968	0.4598181223010358	0.016752672723849237	0.03846077815463962	0.5159070918813821	0.05076754073035593	0.001417464744735454	0.7430194467160907	0.19037235091816831	1.4902100792521558	0.4506636145430959	0.1954863328525199	1.7277127355017545	0.4087014299922486	0.21310709508323675	1.601840538623554	0.3379675488106956	0.3342194892553744	1.3792026370291195	0.4832811767735953	0.38669653318891856	1.130846608269656	0.5365019837425933	0.3901165027197992	0.8759032648527613	0.4891528333955998	0.33153715190867766	0.7612130066106472	0.4895839527007336	0.3483615761606905	0.750422098829906	0.4820652344559234	0.35951656145538924	0.7459878877279281	0.5166170893225707	0.023181286251597114	1.3918781393940156	0.4666974749750245	-0.016428642969383317	1.1404281545363146	0.44117561491503665	-0.04908926271587444	0.8844404086612228	0.45969423219020406	-0.021405053283441163	0.7736773396422898	0.4571365806695999	-0.05998397199936774	0.7552867040474479	0.4648758403461525	-0.08219647334008155	0.7595114924269101	0.4766345450590037	
